HIERARCHY
ROOT Root
{
	OFFSET 0.00000 0.00000 0.00000
	CHANNELS 6 Xposition Yposition Zposition Zrotation Xrotation Yrotation
	JOINT Hips
	{
		OFFSET 0 0 0	
		CHANNELS 3 Zrotation Xrotation Yrotation
		JOINT Spine
		{
			OFFSET 0 4 0	
			CHANNELS 3 Zrotation Xrotation Yrotation
			JOINT Spine1
			{
				OFFSET 0 19.4 0	
				CHANNELS 3 Zrotation Xrotation Yrotation
				JOINT Spine2
				{
					OFFSET 0 16.6 0	
					CHANNELS 3 Zrotation Xrotation Yrotation
					JOINT LeftCollar
					{
						OFFSET 0 10 0	
						CHANNELS 3 Zrotation Xrotation Yrotation
						JOINT LeftArm
						{
							OFFSET 15.6 -2 3	
							CHANNELS 3 Zrotation Xrotation Yrotation
							JOINT LeftForeArm
							{
								OFFSET 3.5 -27 -1	
								CHANNELS 3 Zrotation Xrotation Yrotation
								JOINT LeftHand
								{
									OFFSET 1 -27 1	
									CHANNELS 3 Zrotation Xrotation Yrotation
									End Site
									{
										OFFSET 0 -15 0
									}
								}
							}
						}
					}
					JOINT RightCollar
					{
						OFFSET 0 10 0	
						CHANNELS 3 Zrotation Xrotation Yrotation
						JOINT RightArm
						{
							OFFSET -15.6 -2 3	
							CHANNELS 3 Zrotation Xrotation Yrotation
							JOINT RightForeArm
							{
								OFFSET -3.5 -27 -1	
								CHANNELS 3 Zrotation Xrotation Yrotation
								JOINT RightHand
								{
									OFFSET -1 -27 1	
									CHANNELS 3 Zrotation Xrotation Yrotation
									End Site
									{
										OFFSET 0 -15 0
									}
								}
							}
						}
					}
					JOINT Neck
					{
						OFFSET 0 10 0	
						CHANNELS 3 Zrotation Xrotation Yrotation
						JOINT Head
						{
							OFFSET 0 12.7 3	
							CHANNELS 3 Zrotation Xrotation Yrotation
							End Site
							{
								OFFSET 0 12.7 3
							}
						}
					}
				}
			}
		}
	}
	JOINT LeftHip
	{
		OFFSET 0 0 0	
		CHANNELS 3 Zrotation Xrotation Yrotation
		JOINT LeftUpLeg
		{
			OFFSET 8.8 -6 0	
			CHANNELS 3 Zrotation Xrotation Yrotation
			JOINT LeftLeg
			{
				OFFSET 0 -39 2	
				CHANNELS 3 Zrotation Xrotation Yrotation
				JOINT LeftFoot
				{
					OFFSET 0 -43 -2	
					CHANNELS 3 Zrotation Xrotation Yrotation
					JOINT LeftFootFront
					{
						OFFSET 0 -7 8.5	
						CHANNELS 3 Zrotation Xrotation Yrotation
						End Site
						{
							OFFSET 0 -0.5 9
						}
					}
				}
				JOINT LeftHeel
				{
					OFFSET 0 -43 -2	
					CHANNELS 3 Zrotation Xrotation Yrotation
					End Site
					{
						OFFSET 0 -7.5 -5
					}
				}
			}
		}
	}
	JOINT RightHip
	{
		OFFSET 0 0 0	
		CHANNELS 3 Zrotation Xrotation Yrotation
		JOINT RightUpLeg
		{
			OFFSET -8.8 -6 0	
			CHANNELS 3 Zrotation Xrotation Yrotation
			JOINT RightLeg
			{
				OFFSET 0 -39 2	
				CHANNELS 3 Zrotation Xrotation Yrotation
				JOINT RightFoot
				{
					OFFSET 0 -43 -2	
					CHANNELS 3 Zrotation Xrotation Yrotation
					JOINT RightFootFront
					{
						OFFSET 0 -7 8.5	
						CHANNELS 3 Zrotation Xrotation Yrotation
						End Site
						{
							OFFSET 0 -0.5 9
						}
					}
				}
				JOINT RightHeel
				{
					OFFSET 0 -43 -2	
					CHANNELS 3 Zrotation Xrotation Yrotation
					End Site
					{
						OFFSET 0 -7.5 -5
					}
				}
			}
		}
	}
}
MOTION
Frames: 17
Frame Time: 0.025
0 96.58 0 -0 0 -0 1.1681 1.5715 0.58612 1.0435 0.32961 1.649 1.0435 0.32961 1.649 0.87718 0.27485 1.3856 -0 0 -0 -3.6215 -0.94069 -6.8088 0.1519 2.3171 3.2141 0.52772 -0.49633 -0.60932 -0 0 -0 -3.0467 0.084564 -6.9132 0.60278 1.9083 4.2202 -0.72065 -0.34895 -8.556 -1.66 0.68735 -4.1123 -1.66 0.68735 -4.1123 1.1681 1.5715 0.58612 2.7293 1.8435 5.9572 -2.3309 -1.0667 -10.294 0.14251 1.3757 0.31609 0 0 -2.668e-08 -0 0 -0 1.1681 1.5715 0.58612 -0.41225 0.7164 -2.1828 -0.0026014 1.1267 -1.8607 0.048374 0.062594 0.50913 -0 0 1.6675e-08 -0 0 -0 
0 96.587 0 -0 0 -0 1.2117 1.6504 0.58387 1.0032 0.37423 1.6463 1.0032 0.37422 1.6463 0.84341 0.31242 1.3833 -0 0 -0 -3.5426 -1.1003 -6.7991 0.1375 2.3352 3.1566 0.53244 -0.36685 -0.56991 -0 0 -0 -2.947 0.0051058 -6.909 0.5933 1.9051 4.2185 -0.71162 -0.28277 -8.5667 -1.6043 0.66642 -4.1155 -1.6043 0.66642 -4.1155 1.2117 1.6504 0.58387 2.6618 1.9186 5.9307 -2.3036 -1.1935 -10.864 0.14861 1.4902 0.91302 -0.0057616 -0.023406 -0.00045592 -0 0 -0 1.2117 1.6504 0.58387 -0.44672 0.71097 -2.1858 0.0021411 1.1638 -1.85 0.089093 0.17938 0.24094 -0.0021879 -0.16829 -0.069015 -0 0 -0 
0 96.594 0 -0 0 -0 1.2434 1.7597 0.58062 0.96673 0.43745 1.6445 0.96673 0.43745 1.6445 0.8129 0.3656 1.3819 -0 0 -0 -3.4594 -1.3235 -6.7904 0.11507 2.4839 3.0938 0.53627 -0.40248 -0.52027 -0 0 -0 -2.8339 -0.10469 -6.9081 0.57839 1.8964 4.2168 -0.71248 -0.26795 -8.5764 -1.5404 0.63492 -4.1221 -1.5404 0.63492 -4.1221 1.2434 1.7597 0.58062 2.587 2.0589 5.9175 -2.2295 -1.2878 -11.386 0.14155 1.4694 1.4517 0.0004476 0.0011797 -0.00091608 -0 0 -0 1.2434 1.7597 0.58062 -0.46578 0.70307 -2.1889 0.0083684 1.2148 -1.8351 0.12432 0.22076 0.050146 0.0030512 -0.36473 -0.080441 -0 0 -0 
0 96.602 0 -0 0 -0 1.2538 1.8721 0.58015 0.94889 0.47989 1.6461 0.94889 0.47989 1.6461 0.798 0.40128 1.3833 -0 0 -0 -3.4029 -1.486 -6.7903 0.098519 2.7473 3.0624 0.52719 -0.5635 -0.49386 -0 0 -0 -2.7441 -0.14576 -6.9166 0.558 1.8719 4.2169 -0.70789 -0.24094 -8.5867 -1.4907 0.62889 -4.1325 -1.4907 0.62889 -4.1325 1.2538 1.8721 0.58015 2.5421 2.1982 5.9159 -2.1186 -1.2626 -11.569 0.12543 1.3292 1.6403 0.0031599 0.014767 -0.0021327 -0 0 -0 1.2538 1.8721 0.58015 -0.46233 0.69106 -2.1923 0.013489 1.2634 -1.8221 0.15998 0.28923 -0.053011 0.0014825 -0.58356 -0.018638 -0 0 -0 
0 96.61 0 -0 0 -0 1.2717 1.9869 0.58062 0.93148 0.49154 1.651 0.93148 0.49154 1.651 0.7834 0.41109 1.3874 -0 0 -0 -3.3494 -1.5635 -6.7973 0.097593 2.8907 3.0546 0.50862 -0.62684 -0.46494 -0 0 -0 -2.6488 -0.090149 -6.9282 0.5242 1.8011 4.218 -0.69899 -0.21166 -8.598 -1.4457 0.64327 -4.1425 -1.4457 0.64327 -4.1425 1.2717 1.9869 0.58062 2.5045 2.2695 5.9232 -2.0301 -1.2608 -11.596 0.10604 1.2613 1.667 0.003511 0.01775 -0.0016579 -0 0 -0 1.2717 1.9869 0.58062 -0.46495 0.65957 -2.192 0.013831 1.3048 -1.8149 0.19319 0.32987 -0.074173 0.00088569 -0.74954 -0.00063868 -0 0 -0 
0 96.617 0 -0 0 -0 1.3053 2.084 0.58455 0.90604 0.49756 1.6571 0.90604 0.49756 1.6571 0.76205 0.41619 1.3925 -0 0 -0 -3.2863 -1.6053 -6.8099 0.1021 2.9233 3.0541 0.48865 -0.59394 -0.40883 -0 0 -0 -2.5387 -0.0073262 -6.9389 0.47994 1.6944 4.2164 -0.68979 -0.17854 -8.6098 -1.3992 0.64574 -4.1503 -1.3992 0.64574 -4.1503 1.3053 2.084 0.58455 2.4549 2.3026 5.9306 -1.9672 -1.299 -11.599 0.089573 1.2733 1.6693 0.0032119 0.0047542 4.2155e-05 -0 0 -0 1.3053 2.084 0.58455 -0.48305 0.62235 -2.1917 0.0049401 1.3501 -1.8103 0.22947 0.34443 -0.078185 0.0030778 -0.86927 0.00028831 -0 0 -0 
0 96.625 0 -0 0 -0 1.34 2.1573 0.59156 0.87799 0.51983 1.6798 0.87799 0.51983 1.6798 0.73854 0.43493 1.4116 -0 0 -0 -3.2254 -1.6633 -6.8713 0.10239 2.9356 3.0644 0.48728 -0.5285 -0.34144 -0 0 -0 -2.4495 -0.0065226 -7.0004 0.45023 1.6411 4.2294 -0.68192 -0.16237 -8.6331 -1.3539 0.62192 -4.1773 -1.3539 0.62192 -4.1773 1.34 2.1573 0.59156 2.3925 2.3512 5.9481 -1.9045 -1.353 -11.614 0.075477 1.3052 1.6712 0.0021435 -0.012759 -0.0007119 -0 0 -0 1.34 2.1573 0.59156 -0.50973 0.59209 -2.1925 -0.0053476 1.415 -1.8046 0.27136 0.35737 -0.081548 0.0019625 -0.99047 -0.0026513 -0 0 -0 
0 96.631 0 -0 0 -0 1.3615 2.2077 0.60064 0.85674 0.57821 1.733 0.85674 0.57821 1.733 0.72084 0.48396 1.4563 -0 0 -0 -3.1824 -1.802 -7.028 0.10538 2.9643 3.1245 0.49903 -0.44031 -0.29027 -0 0 -0 -2.3842 -0.094207 -7.1515 0.4276 1.6279 4.2851 -0.67063 -0.17265 -8.6982 -1.316 0.55964 -4.2344 -1.316 0.55963 -4.2344 1.3615 2.2077 0.60064 2.3392 2.4403 6.0119 -1.8405 -1.4057 -11.676 0.065107 1.3376 1.6729 -0.0039635 -0.022607 -0.0012311 -0 0 -0 1.3615 2.2077 0.60064 -0.53415 0.57163 -2.1917 -0.0010935 1.5241 -1.8003 0.3146 0.36826 -0.08594 -0.0071212 -1.1399 -0.00056509 -0 0 -0 
0.0022806 96.635 -0.0040669 -0 0 -0 1.3739 2.2571 0.61163 0.84762 0.66565 1.7933 0.84762 0.66565 1.7933 0.7134 0.55737 1.507 -0 0 -0 -3.1582 -2.0073 -7.2125 0.11492 3.029 3.2461 0.49708 -0.40898 -0.31272 -0 0 -0 -2.3369 -0.22666 -7.3252 0.40656 1.6214 4.387 -0.66388 -0.19984 -8.8091 -1.2876 0.47223 -4.2775 -1.2876 0.47223 -4.2775 1.3739 2.2571 0.61163 2.3091 2.5837 6.1312 -1.7799 -1.4652 -11.793 0.0514 1.3568 1.6704 -0.0080834 -0.019906 0.0010075 -0 0 -0 1.3739 2.2571 0.61163 -0.54643 0.56206 -2.1926 0.016257 1.671 -1.7963 0.34914 0.3658 -0.089985 -0.0074051 -1.3241 0.0026 -0 0 -0 
0.0075962 96.636 -0.013273 -0 0 -0 1.3873 2.3193 0.62531 0.84259 0.7606 1.8564 0.84259 0.7606 1.8564 0.70943 0.63708 1.5601 -0 0 -0 -3.1312 -2.2254 -7.4089 0.12445 3.1235 3.3698 0.45857 -0.49284 -0.35988 -0 0 -0 -2.2839 -0.3522 -7.513 0.39095 1.6106 4.5122 -0.66684 -0.23388 -8.9408 -1.2522 0.39234 -4.3115 -1.2522 0.39234 -4.3115 1.3873 2.3193 0.62531 2.2953 2.7618 6.2485 -1.7117 -1.5268 -11.911 0.024605 1.3487 1.6673 -0.0043619 0.0012796 0.0016055 -0 0 -0 1.3873 2.3193 0.62531 -0.54456 0.57372 -2.1999 0.034192 1.8139 -1.7923 0.38005 0.33965 -0.091923 -0.0028914 -1.5159 0.0014883 -0 0 -0 
0.016832 96.633 -0.028184 -0 0 -0 1.4257 2.4344 0.63916 0.82657 0.80596 1.8992 0.82657 0.80596 1.8992 0.69611 0.67517 1.5961 -0 0 -0 -3.0866 -2.3555 -7.5462 0.13886 3.2302 3.4992 0.36278 -0.72254 -0.44644 -0 0 -0 -2.2082 -0.38301 -7.6425 0.37555 1.5941 4.6276 -0.67249 -0.26432 -9.0628 -1.2028 0.37048 -4.3142 -1.2028 0.37048 -4.3142 1.4257 2.4344 0.63916 2.2671 2.9 6.3675 -1.6381 -1.5782 -12.037 -0.015074 1.2959 1.6677 0.0081993 0.039442 0.001717 -0 0 -0 1.4257 2.4344 0.63916 -0.55521 0.55491 -2.2106 0.040911 1.9032 -1.7917 0.40008 0.29835 -0.094366 0.016335 -1.6614 0.0027997 -0 0 -0 
0.031471 96.626 -0.049175 -0 0 -0 1.4885 2.6065 0.64875 0.78322 0.7536 1.919 0.78322 0.7536 1.919 0.6596 0.63127 1.6126 -0 0 -0 -3.0001 -2.3131 -7.6085 0.16766 3.3042 3.5883 0.20408 -1.0552 -0.52908 -0 0 -0 -2.0851 -0.26082 -7.6987 0.35535 1.5726 4.7062 -0.66986 -0.26832 -9.1474 -1.1302 0.44136 -4.2878 -1.1302 0.44136 -4.2878 1.4885 2.6065 0.64875 2.2089 2.9018 6.4477 -1.567 -1.5968 -12.12 -0.073204 1.1676 1.6636 0.03384 0.1206 0.0068312 -0 0 -0 1.4885 2.6065 0.64875 -0.59063 0.46933 -2.221 0.025548 1.8873 -1.792 0.4084 0.28863 -0.095024 0.032252 -1.7232 -5.2778e-05 -0 0 -0 
0.052596 96.614 -0.075402 -0 0 -0 1.5175 2.6932 0.65001 0.72692 0.64451 1.9216 0.72692 0.64451 1.9216 0.61207 0.53975 1.6147 -0 0 -0 -2.8737 -2.1064 -7.6071 0.18833 3.3024 3.6245 0.017732 -1.4253 -0.58972 -0 0 -0 -1.9373 -0.034508 -7.6978 0.33044 1.5433 4.7432 -0.62765 -0.19676 -9.1825 -1.046 0.57898 -4.2523 -1.046 0.57898 -4.2523 1.5175 2.6932 0.65001 2.1441 2.8271 6.4805 -1.5143 -1.5754 -12.147 -0.10777 1.1246 1.6677 0.038334 0.093646 0.0017618 -0 0 -0 1.5175 2.6932 0.65001 -0.61538 0.41179 -2.2245 -0.014655 1.7566 -1.7894 0.40264 0.2484 -0.1032 0.039909 -1.5801 0.00025238 -0 0 -0 
0.079533 96.598 -0.10702 -0 0 -0 1.4921 2.6582 0.64702 0.65875 0.48402 1.9105 0.65875 0.48402 1.9105 0.55444 0.40511 1.6052 -0 0 -0 -2.6925 -1.7146 -7.5519 0.1694 3.1776 3.6237 -0.14885 -1.7564 -0.62711 -0 0 -0 -1.7805 0.27866 -7.651 0.3014 1.4994 4.7452 -0.59468 -0.13715 -9.184 -0.96362 0.76771 -4.2116 -0.96362 0.76771 -4.2116 1.4921 2.6582 0.64702 2.0629 2.6636 6.4806 -1.4873 -1.5067 -12.135 -0.1263 1.0383 1.6678 0.0438 0.094948 -0.00065745 -0 0 -0 1.4921 2.6582 0.64702 -0.62631 0.38848 -2.2208 -0.081172 1.5176 -1.7838 0.38081 0.24632 -0.11071 0.042041 -1.2763 -0.0017579 -0 0 -0 
0.10824 96.579 -0.14139 -0 0 -0 1.4216 2.537 0.64602 0.57258 0.26134 1.882 0.57258 0.26134 1.8819 0.48155 0.21827 1.581 -0 0 -0 -2.4512 -1.1302 -7.4391 0.093409 2.9037 3.5875 -0.24484 -1.9838 -0.6451 -0 0 -0 -1.6247 0.66831 -7.5498 0.26897 1.4334 4.7143 -0.52236 -0.0091931 -9.1474 -0.89519 0.99254 -4.1575 -0.89519 0.99254 -4.1575 1.4216 2.537 0.64602 1.9405 2.3595 6.4461 -1.4894 -1.3848 -12.08 -0.10986 0.97053 1.6613 0.036877 0.072885 0.00046097 -0 0 -0 1.4216 2.537 0.64602 -0.63488 0.37389 -2.2143 -0.17716 1.1736 -1.7767 0.35636 0.2762 -0.12358 0.026772 -0.81869 0.0025255 -0 0 -0 
0.1316 96.558 -0.17203 -0 0 -0 1.3083 2.3596 0.64861 0.48189 0.001118 1.8434 0.48189 0.0011182 1.8434 0.4048 -0.00010281 1.5485 -0 0 -0 -2.2071 -0.46142 -7.299 -0.023514 2.5328 3.5133 -0.23368 -2.0521 -0.61833 -0 0 -0 -1.5016 1.0707 -7.4208 0.23432 1.3455 4.6526 -0.43998 0.14613 -9.0803 -0.86442 1.2085 -4.1023 -0.86442 1.2085 -4.1023 1.3083 2.3596 0.64861 1.7811 1.9266 6.3719 -1.5274 -1.2289 -11.978 -0.043209 0.93559 1.6403 0.015322 0.035205 0.0085968 -0 0 -0 1.3083 2.3596 0.64861 -0.64418 0.34762 -2.2068 -0.28383 0.7768 -1.7777 0.33673 0.32106 -0.1428 0.001432 -0.2526 0.014375 -0 0 -0 
0.14234 96.536 -0.18458 -0 0 -0 1.1374 2.0938 0.64971 0.42219 -0.23544 1.8062 0.42219 -0.23544 1.8062 0.35414 -0.19866 1.5171 -0 0 -0 -2.0423 0.14529 -7.1677 -0.14835 2.1596 3.4425 -0.093837 -1.8938 -0.51623 -0 0 -0 -1.4555 1.4158 -7.3094 0.2039 1.2423 4.596 -0.37848 0.2923 -9.0126 -0.89907 1.3715 -4.0541 -0.89907 1.3715 -4.0541 1.1374 2.0938 0.64971 1.6362 1.4896 6.2997 -1.5902 -1.0541 -11.88 0.05779 0.9082 1.6111 -0.0066034 0.00079392 0.01294 -0 0 -0 1.1374 2.0938 0.64971 -0.64209 0.31598 -2.1948 -0.36651 0.42216 -1.8044 0.32116 0.38027 -0.15058 -0.013443 -0.015085 0.011631 -0 0 -0 
